<svg width="432.8150146484375px" height="120.79997253417969px" xmlns="http://www.w3.org/2000/svg" viewBox="33.592492675781244 14.600013732910156 432.8150146484375 120.79997253417969" style="background: rgba(0, 0, 0, 0);" preserveAspectRatio="xMidYMid"><defs><filter id="editing-jagged" x="-100%" y="-100%" width="300%" height="300%"><feTurbulence result="turb" baseFrequency="0.1" numOctaves="1" seed="1"></feTurbulence><feDisplacementMap in="SourceGraphic" in2="turb" scale="10"></feDisplacementMap></filter></defs><g filter="url(#editing-jagged)"><g transform="translate(98.5800219476223, 98.68000221252441)"><path d="M30.21-33.92L30.21-33.92L30.21-33.92Q25.02-33.92 21.25-35.65L21.25-35.65L19.20-25.28L31.55-25.28L31.55-25.28Q31.55-21.89 29.86-19.74L29.86-19.74L29.86-19.74Q28.16-17.60 25.09-17.60L25.09-17.60L25.09-17.60Q21.76-17.60 18.69-18.82L18.69-18.82L18.69-18.82Q18.05-19.07 17.98-19.14L17.98-19.14L14.34 0L0.38 0L8.51-42.24L37.06-42.24L37.06-42.24Q37.06-38.34 35.23-36.13L35.23-36.13L35.23-36.13Q33.41-33.92 30.21-33.92ZM54.98-17.98L54.98-17.98L54.98-17.98Q57.28-22.08 57.28-26.24L57.28-26.24L57.28-26.24Q57.28-28.99 55.30-28.99L55.30-28.99L55.30-28.99Q53.76-28.99 52.16-26.37L52.16-26.37L52.16-26.37Q50.50-23.74 49.98-20.35L49.98-20.35L46.66 0L33.41 1.28L39.94-32.64L50.50-33.92L49.34-27.46L49.34-27.46Q52.48-33.92 59.52-33.92L59.52-33.92L59.52-33.92Q63.23-33.92 65.25-32L65.25-32L65.25-32Q67.26-30.08 67.26-26.14L67.26-26.14L67.26-26.14Q67.26-22.21 64.67-19.71L64.67-19.71L64.67-19.71Q62.08-17.22 57.66-17.22L57.66-17.22L57.66-17.22Q55.74-17.22 54.98-17.98ZM94.21-10.82L94.21-10.82L94.21-10.82Q95.81-9.73 95.81-7.33L95.81-7.33L95.81-7.33Q95.81-4.93 94.59-3.39L94.59-3.39L94.59-3.39Q93.38-1.86 91.39-0.83L91.39-0.83L91.39-0.83Q87.30 1.28 82.88 1.28L82.88 1.28L82.88 1.28Q78.46 1.28 75.87 0.32L75.87 0.32L75.87 0.32Q73.28-0.64 71.55-2.43L71.55-2.43L71.55-2.43Q68.16-5.82 68.16-12.03L68.16-12.03L68.16-12.03Q68.16-21.70 73.41-27.58L73.41-27.58L73.41-27.58Q79.04-33.92 88.83-33.92L88.83-33.92L88.83-33.92Q94.91-33.92 97.92-31.36L97.92-31.36L97.92-31.36Q100.16-29.44 100.16-26.30L100.16-26.30L100.16-26.30Q100.16-15.04 80.70-15.04L80.70-15.04L80.70-15.04Q80.45-13.38 80.45-11.97L80.45-11.97L80.45-11.97Q80.45-9.02 81.76-7.90L81.76-7.90L81.76-7.90Q83.07-6.78 85.50-6.78L85.50-6.78L85.50-6.78Q87.94-6.78 90.53-7.90L90.53-7.90L90.53-7.90Q93.12-9.02 94.21-10.82ZM81.15-17.79L81.15-17.79L81.15-17.79Q85.70-17.79 88.32-20.61L88.32-20.61L88.32-20.61Q90.94-23.30 90.94-27.58L90.94-27.58L90.94-27.58Q90.94-29.06 90.40-29.86L90.40-29.86L90.40-29.86Q89.86-30.66 88.77-30.66L88.77-30.66L88.77-30.66Q87.68-30.66 86.75-30.24L86.75-30.24L86.75-30.24Q85.82-29.82 84.86-28.42L84.86-28.42L84.86-28.42Q82.50-25.22 81.15-17.79ZM128.26-10.82L128.26-10.82L128.26-10.82Q129.86-9.73 129.86-7.33L129.86-7.33L129.86-7.33Q129.86-4.93 128.64-3.39L128.64-3.39L128.64-3.39Q127.42-1.86 125.44-0.83L125.44-0.83L125.44-0.83Q121.34 1.28 116.93 1.28L116.93 1.28L116.93 1.28Q112.51 1.28 109.92 0.32L109.92 0.32L109.92 0.32Q107.33-0.64 105.60-2.43L105.60-2.43L105.60-2.43Q102.21-5.82 102.21-12.03L102.21-12.03L102.21-12.03Q102.21-21.70 107.46-27.58L107.46-27.58L107.46-27.58Q113.09-33.92 122.88-33.92L122.88-33.92L122.88-33.92Q128.96-33.92 131.97-31.36L131.97-31.36L131.97-31.36Q134.21-29.44 134.21-26.30L134.21-26.30L134.21-26.30Q134.21-15.04 114.75-15.04L114.75-15.04L114.75-15.04Q114.50-13.38 114.50-11.97L114.50-11.97L114.50-11.97Q114.50-9.02 115.81-7.90L115.81-7.90L115.81-7.90Q117.12-6.78 119.55-6.78L119.55-6.78L119.55-6.78Q121.98-6.78 124.58-7.90L124.58-7.90L124.58-7.90Q127.17-9.02 128.26-10.82ZM115.20-17.79L115.20-17.79L115.20-17.79Q119.74-17.79 122.37-20.61L122.37-20.61L122.37-20.61Q124.99-23.30 124.99-27.58L124.99-27.58L124.99-27.58Q124.99-29.06 124.45-29.86L124.45-29.86L124.45-29.86Q123.90-30.66 122.82-30.66L122.82-30.66L122.82-30.66Q121.73-30.66 120.80-30.24L120.80-30.24L120.80-30.24Q119.87-29.82 118.91-28.42L118.91-28.42L118.91-28.42Q116.54-25.22 115.20-17.79ZM151.68-3.52L151.68-3.52L151.68-3.52Q149.70 1.28 143.36 1.28L143.36 1.28L143.36 1.28Q140.16 1.28 138.11-0.96L138.11-0.96L138.11-0.96Q136.45-2.82 136.45-4.93L136.45-4.93L136.45-4.93Q136.45-9.73 138.69-20.22L138.69-20.22L143.36-44.80L156.35-46.08L150.14-13.70L150.14-13.70Q149.06-8.96 149.06-7.30L149.06-7.30L149.06-7.30Q149.06-3.65 151.68-3.52ZM159.90-1.92L159.90-1.92L159.90-1.92Q158.40-3.58 157.73-6.21L157.73-6.21L157.73-6.21Q157.06-8.83 157.06-13.12L157.06-13.12L157.06-13.12Q157.06-17.41 158.53-21.31L158.53-21.31L158.53-21.31Q160.00-25.22 162.69-28.03L162.69-28.03L162.69-28.03Q168.19-33.92 177.28-33.92L177.28-33.92L177.28-33.92Q180.54-33.92 182.91-32.83L182.91-32.83L193.86-33.92L189.12-8.96L189.12-8.96Q188.93-8.19 188.93-6.78L188.93-6.78L188.93-6.78Q188.93-5.38 189.79-4.48L189.79-4.48L189.79-4.48Q190.66-3.58 191.94-3.46L191.94-3.46L191.94-3.46Q191.30-1.28 188.96 0L188.96 0L188.96 0Q186.62 1.28 184.00 1.28L184.00 1.28L184.00 1.28Q181.38 1.28 179.62 0.29L179.62 0.29L179.62 0.29Q177.86-0.70 177.34-2.37L177.34-2.37L177.34-2.37Q176.32-0.77 174.14 0.26L174.14 0.26L174.14 0.26Q171.97 1.28 169.06 1.28L169.06 1.28L169.06 1.28Q166.14 1.28 163.78 0.51L163.78 0.51L163.78 0.51Q161.41-0.26 159.90-1.92ZM173.41-27.90L173.41-27.90L173.41-27.90Q172.67-26.75 172.03-24.80L172.03-24.80L172.03-24.80Q171.39-22.85 170.34-17.63L170.34-17.63L170.34-17.63Q169.28-12.42 169.28-8.70L169.28-8.70L169.28-8.70Q169.28-4.99 169.86-3.90L169.86-3.90L169.86-3.90Q170.43-2.82 171.46-2.82L171.46-2.82L171.46-2.82Q173.50-2.82 175.01-4.77L175.01-4.77L175.01-4.77Q176.51-6.72 177.09-10.18L177.09-10.18L180.48-28.93L180.48-28.93Q179.14-30.08 177.57-30.08L177.57-30.08L177.57-30.08Q176.00-30.08 175.07-29.57L175.07-29.57L175.07-29.57Q174.14-29.06 173.41-27.90ZM224.38 1.28L224.38 1.28L224.38 1.28Q216.64 1.28 216.64-4.74L216.64-4.74L216.64-4.74Q216.70-6.40 217.22-9.22L217.22-9.22L218.37-15.10L218.37-15.10Q220.10-23.42 220.10-25.28L220.10-25.28L220.10-25.28Q220.10-28.99 217.92-28.99L217.92-28.99L217.92-28.99Q214.27-28.99 212.35-19.46L212.35-19.46L208.58 0L195.71 1.28L202.37-32.70L212.86-33.92L211.84-27.65L211.84-27.65Q214.85-33.92 224.06-33.92L224.06-33.92L224.06-33.92Q228.54-33.92 230.43-32.03L230.43-32.03L230.43-32.03Q232.32-30.14 232.32-25.92L232.32-25.92L232.32-25.92Q232.32-21.95 230.27-12.67L230.27-12.67L230.27-12.67Q229.31-8.51 229.31-6.94L229.31-6.94L229.31-6.94Q229.31-5.38 230.18-4.48L230.18-4.48L230.18-4.48Q231.04-3.58 232.32-3.46L232.32-3.46L232.32-3.46Q231.68-1.28 229.47 0L229.47 0L229.47 0Q227.26 1.28 224.38 1.28ZM268.86-26.62L268.86-26.62L268.86-26.62Q268.86-23.94 266.62-22.27L266.62-22.27L266.62-22.27Q264.38-20.61 260.74-20.61L260.74-20.61L260.74-20.61Q259.20-20.61 258.30-21.06L258.30-21.06L258.30-21.06Q259.01-22.72 259.23-24.80L259.23-24.80L259.23-24.80Q259.46-26.88 259.46-27.46L259.46-27.46L259.46-27.46Q259.46-30.14 257.60-30.14L257.60-30.14L257.60-30.14Q256.32-30.14 254.88-28.54L254.88-28.54L254.88-28.54Q253.44-26.94 252.22-24.45L252.22-24.45L252.22-24.45Q249.54-18.69 249.54-12.86L249.54-12.86L249.54-12.86Q249.54-9.66 250.75-8.22L250.75-8.22L250.75-8.22Q251.97-6.78 254.66-6.78L254.66-6.78L254.66-6.78Q258.37-6.78 261.31-9.86L261.31-9.86L261.31-9.86Q262.14-10.82 262.59-11.90L262.59-11.90L262.59-11.90Q265.02-10.62 265.02-7.10L265.02-7.10L265.02-7.10Q265.02-3.52 261.06-1.15L261.06-1.15L261.06-1.15Q256.96 1.28 250.43 1.28L250.43 1.28L250.43 1.28Q237.44 1.28 237.44-12.48L237.44-12.48L237.44-12.48Q237.44-22.53 243.14-28.29L243.14-28.29L243.14-28.29Q248.64-33.92 258.75-33.92L258.75-33.92L258.75-33.92Q268.86-33.92 268.86-26.62ZM296.51-10.82L296.51-10.82L296.51-10.82Q298.11-9.73 298.11-7.33L298.11-7.33L298.11-7.33Q298.11-4.93 296.90-3.39L296.90-3.39L296.90-3.39Q295.68-1.86 293.70-0.83L293.70-0.83L293.70-0.83Q289.60 1.28 285.18 1.28L285.18 1.28L285.18 1.28Q280.77 1.28 278.18 0.32L278.18 0.32L278.18 0.32Q275.58-0.64 273.86-2.43L273.86-2.43L273.86-2.43Q270.46-5.82 270.46-12.03L270.46-12.03L270.46-12.03Q270.46-21.70 275.71-27.58L275.71-27.58L275.71-27.58Q281.34-33.92 291.14-33.92L291.14-33.92L291.14-33.92Q297.22-33.92 300.22-31.36L300.22-31.36L300.22-31.36Q302.46-29.44 302.46-26.30L302.46-26.30L302.46-26.30Q302.46-15.04 283.01-15.04L283.01-15.04L283.01-15.04Q282.75-13.38 282.75-11.97L282.75-11.97L282.75-11.97Q282.75-9.02 284.06-7.90L284.06-7.90L284.06-7.90Q285.38-6.78 287.81-6.78L287.81-6.78L287.81-6.78Q290.24-6.78 292.83-7.90L292.83-7.90L292.83-7.90Q295.42-9.02 296.51-10.82ZM283.46-17.79L283.46-17.79L283.46-17.79Q288.00-17.79 290.62-20.61L290.62-20.61L290.62-20.61Q293.25-23.30 293.25-27.58L293.25-27.58L293.25-27.58Q293.25-29.06 292.70-29.86L292.70-29.86L292.70-29.86Q292.16-30.66 291.07-30.66L291.07-30.66L291.07-30.66Q289.98-30.66 289.06-30.24L289.06-30.24L289.06-30.24Q288.13-29.82 287.17-28.42L287.17-28.42L287.17-28.42Q284.80-25.22 283.46-17.79Z" fill="#444"></path></g></g><style>text {
  font-size: 64px;
  font-family: Arial Black;
  dominant-baseline: central;
  text-anchor: middle;
}</style></svg>